# xmcd
#
# Track frame offsets:
#	150
#	16996
#	35691
#	49601
#	63019
#	83855
#	106695
#	132883
#
# Disc length: 1972 seconds
#
# Revision: 1
# Processed by: cddbd v1.5.2PL0 Copyright (c) Steve Scherf et al.
# Submitted via: audiograbber 1.83.01
#
DISCID=5907b208
DTITLE=The Billy Boys - Hard Men Ride
DYEAR=2003
DGENRE=Country
TTITLE0=The Range
TTITLE1=Kentucky
TTITLE2=The Throttle And The Bottle
TTITLE3=The Things That You Do
TTITLE4=Run To Me
TTITLE5=Te Veo A Ti
TTITLE6=Hard Men Ride
TTITLE7=My Dear, My Darling
EXTD=YEAR: 2003
EXTT0=
EXTT1=
EXTT2=
EXTT3=
EXTT4=
EXTT5=
EXTT6=
EXTT7=
PLAYORDER=
